# xmcd
#
# Track frame offsets:
#	150
#	16615
#	29004
#	40675
#	64544
#	82083
#	96466
#	108462
#	127206
#	139708
#	158817
#	175800
#	191610
#	202604
#	217239
#	230079
#	245446
#	260957
#	274814
#	285249
#
# Disc length: 4059 seconds
#
# Revision: 0
# Processed by: cddbd v1.4PL0 Copyright (c) Steve Scherf et al.
# Submitted via: dBpowerAMP V4.0
#
DISCID=280fd914
DTITLE=Foster And Allen - A Collection Of Love Songs
DYEAR=1900
DGENRE=
TTITLE0=I Will Love You All My Life
TTITLE1=I'll Never Stop Wanting You
TTITLE2=I Love You Because
TTITLE3=After The Ball Is Over
TTITLE4=Bunch Of Thyme
TTITLE5=An Old Time Waltz
TTITLE6=Your Old Love Letters
TTITLE7=I Love You Every Second
TTITLE8=Beautiful Dreamer
TTITLE9=Sweet Forget Me Not
TTITLE10=Love Me
TTITLE11=Turn Back The Years
TTITLE12=Do You Think You Could LoveMe Again
TTITLE13=Mrs Kenny's Waltz
TTITLE14=The Ring Your Mother Wore
TTITLE15=Send Me A Pillow
TTITLE16=I Don't Know Why I Love You But I Do
TTITLE17=Could I Have This Dance
TTITLE18=A Picture Of You
TTITLE19=The Rose Of Allendale
EXTD=
EXTT0=
EXTT1=
EXTT2=
EXTT3=
EXTT4=
EXTT5=
EXTT6=
EXTT7=
EXTT8=
EXTT9=
EXTT10=
EXTT11=
EXTT12=
EXTT13=
EXTT14=
EXTT15=
EXTT16=
EXTT17=
EXTT18=
EXTT19=
PLAYORDER=
